<?xml version="1.0" encoding="UTF-8"?>
<svg id="Layer_2" data-name="Layer 2" xmlns="http://www.w3.org/2000/svg" viewBox="0 0 515.23 70.23">
  <defs>
    <style>
      .cls-1 {
        fill: none;
      }

      .cls-1, .cls-2, .cls-3, .cls-4 {
        stroke-width: 0px;
      }

      .cls-5 {
        stroke: #4c5e66;
        stroke-miterlimit: 10;
        stroke-width: 2px;
      }

      .cls-5, .cls-6 {
        fill: #4c5e66;
      }

      .cls-6 {
        font-family: Avenir-Light, Avenir;
        font-size: 42px;
        font-weight: 300;
      }

      .cls-2 {
        fill: #4c5d66;
      }

      .cls-3 {
        fill: #07b6cd;
      }

      .cls-4 {
        fill: #a5cd39;
      }
    </style>
  </defs>
  <g id="Layer_1-2" data-name="Layer 1">
    <line class="cls-5" x1="329.59" y1="24.62" x2="329.59" y2="64.27"/>
    <text class="cls-6" transform="translate(353.88 59.72)"><tspan x="0" y="0">DESIGN</tspan></text>
    <g>
      <path class="cls-1" d="m180.05,31.65c-2.57,0-4.97.7-7.04,1.91-1.21,2.07-1.91,4.47-1.91,7.04,0,7.71,6.27,13.98,13.98,13.98,2.57,0,4.97-.7,7.04-1.91,1.21-2.07,1.91-4.47,1.91-7.04,0-7.71-6.27-13.98-13.98-13.98Z"/>
      <path class="cls-1" d="m195.2,31.44c-.31-.35-.64-.68-.99-.99.34.32.67.65.99.99Z"/>
      <path class="cls-1" d="m169.68,54.98c.32.35.66.69,1.01,1.01-.35-.33-.68-.66-1.01-1.01Z"/>
      <path class="cls-4" d="m173.01,33.56c2.07-1.21,4.47-1.91,7.04-1.91,7.71,0,13.98,6.27,13.98,13.98,0,2.57-.7,4.97-1.91,7.04,4.15-2.43,6.94-6.93,6.94-12.07,0-3.6-1.37-6.88-3.61-9.36-.33-.35-.66-.68-1.01-1.01-2.48-2.24-5.76-3.61-9.36-3.61-5.14,0-9.64,2.79-12.07,6.94Z"/>
      <path class="cls-4" d="m170.69,55.99c-.35-.32-.69-.66-1.01-1.01-3.52-3.77-5.68-8.82-5.68-14.39,0-4.54,1.44-8.73,3.88-12.17-5.39,3.82-8.9,10.1-8.9,17.2,0,11.64,9.44,21.08,21.08,21.08,7.1,0,13.38-3.52,17.2-8.9-3.44,2.44-7.64,3.88-12.17,3.88-5.56,0-10.62-2.16-14.39-5.68Z"/>
      <path class="cls-3" d="m171.1,40.59c0-2.57.7-4.97,1.91-7.04-4.15,2.43-6.94,6.93-6.94,12.07,0,3.6,1.37,6.88,3.61,9.36.33.35.66.68,1.01,1.01,2.48,2.24,5.76,3.61,9.36,3.61,5.14,0,9.64-2.79,12.07-6.94-2.07,1.21-4.47,1.91-7.04,1.91-7.71,0-13.98-6.27-13.98-13.98Z"/>
      <path class="cls-3" d="m206.16,40.59c0-11.64-9.44-21.08-21.08-21.08-7.1,0-13.38,3.52-17.2,8.9,3.44-2.44,7.64-3.88,12.17-3.88,5.56,0,10.62,2.16,14.39,5.68.35.32.69.66,1.01,1.01,3.52,3.77,5.68,8.82,5.68,14.39,0,4.54-1.44,8.73-3.88,12.17,5.39-3.82,8.9-10.1,8.9-17.2Z"/>
      <path class="cls-2" d="m169.68,54.98c-2.24-2.48-3.61-5.76-3.61-9.36,0-5.14,2.79-9.64,6.94-12.07,2.43-4.15,6.93-6.94,12.07-6.94,3.6,0,6.88,1.37,9.36,3.61-3.77-3.52-8.82-5.68-14.39-5.68-4.54,0-8.73,1.44-12.17,3.88-2.44,3.44-3.88,7.64-3.88,12.17,0,5.56,2.16,10.62,5.68,14.39Z"/>
      <path class="cls-2" d="m195.45,31.23c2.24,2.48,3.61,5.76,3.61,9.36,0,5.14-2.79,9.64-6.94,12.07-2.43,4.15-6.93,6.94-12.07,6.94-3.6,0-6.88-1.37-9.36-3.61,3.77,3.52,8.82,5.68,14.39,5.68,4.54,0,8.73-1.44,12.17-3.88,2.44-3.44,3.88-7.64,3.88-12.17,0-5.56-2.16-10.62-5.68-14.39Z"/>
    </g>
    <path class="cls-3" d="m214.14,23.32h3.82v11.3c3.12-7.09,9.74-12.24,17.62-11.93v4.21h-.39c-9.2,0-17.23,6.94-17.23,19.88v16.29h-3.82V23.32Z"/>
    <path class="cls-3" d="m275.46,58.33l2.19-3.09c4.22,3.41,8.9,5.31,13.8,5.31,5.2,0,9.28-3.01,9.28-7.69v-.16c0-4.76-4.83-6.5-10.18-8.09-6.26-1.9-13.19-3.89-13.19-11.1v-.16c0-6.5,5.2-11.18,12.67-11.18,4.6,0,9.8,1.74,13.65,4.44l-1.96,3.25c-3.54-2.46-7.77-4.04-11.84-4.04-5.28,0-8.75,3.01-8.75,7.06v.16c0,4.52,5.2,6.18,10.71,7.85,6.18,1.82,12.67,4.2,12.67,11.34v.16c0,7.21-5.88,11.81-13.27,11.81-5.58,0-11.69-2.38-15.76-5.87Z"/>
    <path class="cls-3" d="m98.6,23h4.29l12.01,34.92,12-35.08h3.04l12,35.08,12-34.92h4.13l-14.58,40.06h-3.27l-11.85-34.06-11.92,34.06h-3.27l-14.58-40.06Z"/>
    <path class="cls-2" d="m0,23.02h14.01c9.38,0,15.22,5.32,15.22,13.39v.11c0,8.98-7.21,13.67-16.02,13.67h-6.17v12.87H0V23.02Zm13.44,21.19c5.32,0,8.64-3.34,8.64-7.52v-.11c0-4.69-3.37-7.52-8.64-7.52h-6.4v15.15h6.4Z"/>
    <path class="cls-2" d="m75.13,23.02h7.04v33.64h19.05v6.41h-26.08V23.02Z"/>
    <path class="cls-2" d="m61.81,43.03c-.23-.21-.5-.38-.75-.58,1.98-2.07,3.32-4.84,3.32-7.93,0-6.37-5.16-11.53-11.53-11.53h-16.64v40.07h17.97c6.37,0,11.53-5.16,11.53-11.53,0-3.38-1.58-6.39-3.89-8.5Zm-18.62-14.23h8.75c2.96,0,5.36,2.77,5.36,5.73s-2.41,5.73-5.36,5.73h-8.75v-11.46Zm10.07,28.46h-10.07v-11.46h10.07c2.96,0,5.36,2.77,5.36,5.73s-2.4,5.73-5.36,5.73Z"/>
    <polygon class="cls-3" points="272.14 22.95 267.65 22.95 246.28 44.31 246.28 0 242.46 0 242.46 48.15 242.46 53.02 242.46 63.07 246.28 63.07 246.28 49.17 252.08 43.33 268.1 63.07 273.01 63.07 254.78 40.55 272.14 22.95"/>
  </g>
</svg>